<svg id="svg" version="1.1" xmlns="http://www.w3.org/2000/svg" xmlns:xlink="http://www.w3.org/1999/xlink" width="400" height="396.19651347068145" viewBox="0, 0, 400,396.19651347068145"><g id="svgg"><path id="path0" d="M320.620 70.790 C 320.191 71.219,320.672 71.754,321.487 71.754 C 321.887 71.754,322.312 72.008,322.431 72.318 C 322.666 72.931,320.371 72.860,315.983 72.118 C 313.181 71.645,309.018 71.655,305.055 72.146 C 303.310 72.361,300.144 72.646,298.018 72.778 C 295.811 72.915,294.153 73.191,294.153 73.422 C 294.153 73.664,294.671 73.729,295.441 73.584 C 298.555 72.997,305.117 72.843,306.037 73.335 C 307.590 74.166,306.124 74.580,300.356 74.938 C 293.467 75.365,286.498 76.031,284.044 76.496 C 282.953 76.703,280.010 77.162,277.502 77.517 C 274.995 77.872,272.319 78.331,271.556 78.537 C 270.793 78.743,269.098 79.073,267.790 79.271 C 266.482 79.468,264.073 79.927,262.438 80.290 C 260.803 80.653,258.751 81.093,257.879 81.269 C 252.318 82.387,241.451 84.951,235.481 86.553 C 234.281 86.875,231.784 87.527,229.931 88.003 C 228.077 88.478,226.204 89.017,225.768 89.200 C 225.332 89.382,224.440 89.643,223.786 89.779 C 223.132 89.915,221.437 90.366,220.020 90.781 C 218.603 91.196,216.105 91.915,214.470 92.378 C 212.834 92.841,211.051 93.367,210.505 93.547 C 209.960 93.726,208.444 94.178,207.136 94.551 C 204.325 95.352,198.748 97.092,197.621 97.520 C 197.185 97.686,194.955 98.397,192.666 99.101 C 185.634 101.262,184.567 101.599,183.746 101.924 C 183.310 102.096,181.080 102.803,178.791 103.495 C 176.501 104.186,173.295 105.177,171.666 105.696 C 170.037 106.215,168.473 106.640,168.192 106.640 C 167.910 106.640,167.370 106.808,166.992 107.013 C 166.613 107.219,165.233 107.684,163.925 108.048 C 162.616 108.412,160.743 108.945,159.762 109.233 C 154.749 110.703,154.261 110.337,158.277 108.118 C 163.834 105.047,164.726 104.541,164.916 104.351 C 165.642 103.621,157.524 105.784,154.807 107.044 C 154.371 107.246,153.063 107.776,151.901 108.222 C 147.804 109.793,130.709 118.440,125.960 121.343 C 124.921 121.978,123.988 122.498,123.886 122.498 C 123.784 122.498,122.535 123.211,121.110 124.083 C 119.685 124.955,118.429 125.669,118.319 125.669 C 116.813 125.669,80.083 149.468,76.240 152.935 C 75.545 153.561,74.296 154.690,73.465 155.443 C 66.486 161.764,63.208 168.640,64.977 173.251 C 66.947 178.388,67.061 178.481,72.466 179.391 C 78.182 180.353,80.280 179.647,82.665 175.961 C 84.709 172.801,86.544 170.923,89.359 169.110 C 90.469 168.395,92.312 167.067,93.455 166.159 C 112.752 150.816,119.050 146.864,143.707 134.632 C 162.986 125.067,162.873 125.119,175.818 120.094 C 177.792 119.328,182.254 117.779,183.152 117.548 C 183.697 117.409,184.500 117.146,184.936 116.966 C 185.725 116.638,187.384 116.146,196.432 113.556 C 202.528 111.810,205.163 111.067,207.136 110.537 C 208.008 110.303,209.524 109.887,210.505 109.613 C 216.963 107.813,224.979 105.678,228.345 104.861 C 229.544 104.570,232.309 103.857,234.490 103.275 C 238.643 102.168,240.983 101.581,245.590 100.488 C 247.116 100.125,249.078 99.656,249.950 99.443 C 250.823 99.231,252.517 98.834,253.717 98.561 C 254.916 98.287,256.165 97.962,256.492 97.837 C 257.021 97.634,258.514 97.323,265.808 95.897 C 266.898 95.684,268.860 95.347,270.168 95.148 C 272.313 94.823,275.507 94.278,281.863 93.153 C 283.062 92.940,285.738 92.502,287.810 92.178 C 289.881 91.854,293.271 91.304,295.342 90.955 C 299.707 90.221,302.400 89.845,307.631 89.240 C 309.703 89.000,312.646 88.625,314.172 88.406 C 317.822 87.883,326.614 87.803,327.100 88.289 C 328.653 89.842,320.645 97.600,310.093 104.763 C 306.371 107.290,304.146 109.148,301.936 111.575 C 299.365 114.400,291.432 120.515,290.339 120.515 C 290.214 120.515,289.553 120.917,288.870 121.407 C 288.187 121.898,287.322 122.478,286.949 122.696 C 283.516 124.700,272.509 131.958,266.006 136.504 C 259.196 141.266,241.674 152.847,239.247 154.190 C 235.991 155.992,230.936 159.674,226.966 163.135 C 222.352 167.159,219.705 168.352,210.704 170.467 C 208.751 170.925,209.694 168.014,214.491 158.771 C 218.894 150.289,222.746 142.622,223.437 140.965 C 227.670 130.817,228.165 124.079,224.922 120.739 C 223.039 118.801,220.051 117.366,218.834 117.817 C 217.576 118.282,212.799 116.352,208.271 113.549 C 207.206 112.889,206.938 113.159,206.938 114.886 C 206.938 115.642,206.743 116.995,206.506 117.893 C 205.379 122.156,204.869 123.949,204.576 124.678 C 203.186 128.137,202.534 129.547,200.640 133.201 C 197.756 138.763,194.648 145.047,194.648 145.317 C 194.648 145.436,194.266 146.372,193.799 147.395 C 193.333 148.419,192.636 149.991,192.250 150.889 C 191.776 151.995,191.231 152.602,190.564 152.770 C 189.865 152.945,189.208 153.728,188.307 155.458 C 186.748 158.455,185.594 160.027,180.737 165.771 C 178.645 168.244,176.459 171.089,175.877 172.092 C 175.295 173.096,174.468 174.235,174.040 174.623 C 173.224 175.361,173.307 176.016,174.215 176.016 C 174.508 176.016,175.912 174.455,177.336 172.547 C 180.235 168.663,182.990 165.811,183.424 166.246 C 183.861 166.682,181.437 171.178,179.093 174.275 C 177.946 175.792,175.414 179.168,173.466 181.777 C 171.519 184.386,167.941 188.840,165.516 191.675 C 161.273 196.634,158.374 200.215,156.870 202.356 C 156.052 203.519,155.004 203.699,155.006 202.676 C 155.009 201.683,156.188 199.868,160.433 194.325 C 162.489 191.639,164.106 189.246,164.026 189.007 C 163.840 188.448,161.144 191.251,158.255 195.007 C 157.012 196.622,154.287 200.011,152.197 202.539 C 150.108 205.067,147.915 207.967,147.324 208.983 C 146.733 210.000,144.724 212.656,142.859 214.886 C 140.993 217.117,138.473 220.299,137.257 221.958 C 131.753 229.469,129.662 228.689,132.060 220.020 C 132.896 216.997,133.469 214.727,134.561 210.109 C 134.897 208.692,135.632 205.659,136.195 203.370 C 136.758 201.080,137.480 198.048,137.801 196.630 C 138.121 195.213,138.539 193.429,138.729 192.666 C 138.920 191.903,139.350 190.119,139.685 188.702 C 140.020 187.284,140.579 185.055,140.927 183.746 C 143.074 175.685,143.203 172.449,141.427 171.149 C 139.060 169.416,131.212 168.752,128.356 170.043 C 127.423 170.464,126.366 170.897,126.008 171.005 C 124.886 171.344,122.258 177.403,120.912 182.755 C 120.720 183.518,120.306 185.035,119.992 186.125 C 119.679 187.215,119.120 189.356,118.751 190.882 C 117.595 195.661,115.970 202.096,115.096 205.352 C 114.369 208.062,113.326 212.263,111.997 217.839 C 110.963 222.174,109.644 231.335,109.702 233.778 C 109.957 244.562,125.220 251.945,136.967 246.967 C 137.403 246.782,138.206 246.506,138.751 246.353 C 140.315 245.915,142.708 244.109,145.349 241.373 C 149.009 237.581,149.770 236.606,154.309 229.889 C 158.985 222.969,166.189 213.124,166.895 212.688 C 167.597 212.254,167.015 215.651,165.707 219.623 C 164.702 222.676,164.350 223.629,163.299 226.165 C 163.118 226.601,162.151 229.009,161.150 231.516 C 160.148 234.024,159.173 236.432,158.982 236.868 C 156.702 242.072,156.109 246.813,157.642 247.577 C 159.888 248.697,159.893 248.641,157.177 253.916 C 155.788 256.615,154.263 259.771,153.789 260.928 C 153.316 262.086,152.680 263.598,152.377 264.289 C 152.074 264.981,151.708 266.140,151.564 266.866 C 150.940 270.001,149.527 271.917,146.348 273.937 C 142.464 276.405,142.156 276.668,141.487 278.084 C 140.865 279.401,138.202 281.264,125.471 289.285 C 120.892 292.170,115.094 295.825,112.587 297.408 C 102.965 303.481,95.878 306.435,90.900 306.448 C 88.805 306.453,86.544 306.979,85.369 307.734 C 84.715 308.154,85.176 309.655,86.289 310.732 C 87.053 311.470,87.193 311.907,86.997 312.949 C 86.762 314.202,86.828 314.282,88.887 315.257 C 97.011 319.104,102.643 318.688,111.746 313.572 C 113.189 312.760,116.422 310.946,118.930 309.540 C 121.437 308.134,124.798 306.237,126.398 305.325 C 127.999 304.413,129.378 303.667,129.464 303.667 C 129.549 303.667,130.785 302.953,132.210 302.081 C 133.635 301.209,134.890 300.496,135.000 300.496 C 135.110 300.496,135.939 300.029,136.843 299.458 C 137.747 298.887,138.996 298.274,139.619 298.095 L 140.751 297.771 140.002 298.723 C 139.317 299.594,138.511 303.687,138.706 305.301 C 138.749 305.655,138.453 306.031,138.048 306.137 C 136.163 306.630,134.432 313.192,135.722 314.956 C 136.374 315.847,135.074 318.978,133.895 319.355 C 133.460 319.495,133.201 319.978,133.201 320.652 C 133.201 321.243,132.967 322.078,132.682 322.508 C 132.128 323.342,131.472 325.344,130.802 328.246 C 130.576 329.227,130.114 331.189,129.776 332.607 C 129.439 334.024,129.061 335.629,128.938 336.174 C 128.814 336.720,128.437 337.369,128.100 337.617 C 127.403 338.129,127.426 341.565,128.131 342.418 C 128.671 343.071,130.364 343.045,131.670 342.363 C 132.245 342.063,133.672 341.502,134.841 341.115 C 140.143 339.362,143.148 336.092,145.065 329.992 C 145.811 327.614,146.570 325.500,146.749 325.292 C 146.929 325.085,147.076 324.666,147.076 324.361 C 147.076 324.056,147.326 323.244,147.631 322.557 C 147.937 321.870,149.388 318.097,150.856 314.172 C 152.323 310.248,153.836 306.323,154.216 305.451 C 154.597 304.579,155.838 301.368,156.974 298.315 C 158.110 295.263,159.141 292.498,159.264 292.170 C 159.387 291.843,159.951 290.262,160.517 288.655 C 161.636 285.480,161.229 285.846,167.294 282.553 C 168.494 281.902,170.813 280.611,172.448 279.683 C 177.087 277.051,178.179 276.443,181.058 274.891 C 182.537 274.093,184.460 273.039,185.332 272.549 C 186.204 272.058,188.523 270.805,190.486 269.765 C 192.448 268.725,195.213 267.253,196.630 266.494 C 198.048 265.735,200.902 264.214,202.973 263.115 C 205.045 262.015,207.405 260.700,208.218 260.191 C 209.031 259.683,209.768 259.267,209.855 259.267 C 209.994 259.267,213.515 257.348,217.641 255.024 C 218.404 254.594,220.099 253.655,221.407 252.936 C 222.716 252.217,223.964 251.498,224.182 251.339 C 224.400 251.179,225.382 250.605,226.363 250.065 C 239.250 242.964,268.322 224.142,277.768 216.785 C 293.337 204.657,298.513 198.423,298.513 191.800 C 298.513 186.651,293.778 181.083,286.795 178.021 C 285.718 177.548,284.480 176.993,284.044 176.786 C 279.900 174.820,266.206 172.754,253.939 172.244 C 244.578 171.854,244.409 171.744,247.930 168.305 C 249.488 166.785,251.355 165.586,254.769 163.914 C 258.400 162.135,285.237 144.936,286.620 143.501 C 286.729 143.388,291.100 140.426,296.333 136.920 C 346.743 103.138,354.410 96.814,354.410 89.015 C 354.410 83.372,348.825 77.444,341.724 75.550 C 337.833 74.512,336.290 74.041,335.219 73.563 C 331.595 71.947,321.400 70.010,320.620 70.790 M168.572 181.787 C 168.024 182.170,167.696 182.807,167.703 183.471 L 167.716 184.539 168.694 183.427 C 170.160 181.761,170.083 180.728,168.572 181.787 M269.402 188.734 C 272.667 189.329,272.711 189.474,270.561 192.541 C 266.859 197.821,261.958 202.123,252.182 208.675 C 247.075 212.099,243.987 214.413,241.625 216.587 C 240.836 217.314,233.622 222.197,232.111 223.028 C 231.675 223.268,230.248 224.046,228.940 224.757 C 225.305 226.733,223.442 228.360,218.629 233.761 C 216.789 235.825,214.969 236.948,212.593 237.484 C 210.916 237.862,210.951 237.371,212.697 236.040 C 215.832 233.649,213.067 234.875,205.001 239.454 C 202.039 241.136,200.143 242.493,199.483 243.406 C 197.339 246.369,193.489 249.442,188.675 252.032 C 181.382 255.955,172.822 260.169,172.599 259.946 C 172.336 259.683,175.870 249.879,176.481 249.177 C 176.661 248.970,176.809 248.574,176.809 248.296 C 176.809 248.019,177.233 246.850,177.750 245.700 C 178.268 244.549,179.269 242.180,179.974 240.436 C 181.764 236.009,181.771 235.992,183.126 232.975 C 183.794 231.488,184.341 230.207,184.341 230.129 C 184.341 230.050,184.859 228.859,185.493 227.481 C 186.126 226.103,186.907 224.083,187.228 222.993 C 187.549 221.903,188.280 219.900,188.852 218.543 C 189.773 216.359,190.389 214.953,192.463 210.307 C 192.755 209.653,193.469 208.048,194.049 206.739 C 196.005 202.329,196.582 201.048,199.506 194.634 C 201.283 190.735,202.870 190.169,207.912 191.634 C 211.852 192.779,217.490 193.005,223.191 192.245 C 224.827 192.028,227.681 191.678,229.534 191.469 C 231.388 191.260,235.045 190.824,237.661 190.501 C 240.278 190.177,244.202 189.723,246.383 189.492 C 248.563 189.261,251.506 188.922,252.924 188.739 C 256.740 188.245,266.704 188.242,269.402 188.734 M154.212 204.149 C 154.212 204.803,152.894 207.334,152.553 207.334 C 152.375 207.334,152.230 207.581,152.230 207.884 C 152.230 208.186,151.308 209.390,150.181 210.559 C 149.054 211.729,147.736 213.395,147.253 214.262 C 146.769 215.130,145.818 216.267,145.139 216.791 L 143.905 217.743 143.905 216.628 C 143.905 215.812,144.426 215.011,145.849 213.639 C 146.918 212.609,147.926 211.348,148.087 210.838 C 149.006 207.940,154.212 202.255,154.212 204.149 M142.881 218.972 C 142.626 219.636,141.923 219.882,141.923 219.306 C 141.923 218.921,142.807 217.997,142.996 218.186 C 143.070 218.260,143.018 218.614,142.881 218.972 " stroke="none" fill="#050505" fill-rule="evenodd"></path><path id="path1" d="M0.000 198.216 L 0.000 396.432 200.000 396.432 L 400.000 396.432 400.000 198.216 L 400.000 0.000 200.000 0.000 L 0.000 0.000 0.000 198.216 M328.076 70.929 C 331.563 71.677,334.436 72.536,336.769 73.528 C 337.423 73.806,339.118 74.353,340.535 74.745 C 351.677 77.823,357.557 86.224,353.830 93.740 C 353.001 95.413,344.968 103.745,342.319 105.680 C 341.447 106.317,340.387 107.152,339.963 107.534 C 339.539 107.917,335.009 111.128,329.896 114.670 C 316.418 124.007,313.409 126.057,301.090 134.298 C 294.985 138.383,289.901 141.821,289.792 141.940 C 289.683 142.058,284.153 145.795,277.502 150.244 C 270.852 154.693,264.430 158.994,263.231 159.801 C 262.032 160.608,258.514 162.555,255.414 164.127 C 250.954 166.390,249.382 167.412,247.882 169.024 L 245.986 171.060 249.554 171.341 C 251.516 171.495,256.155 171.821,259.861 172.065 C 269.935 172.729,279.098 174.367,284.638 176.495 C 293.536 179.911,298.917 185.659,298.904 191.732 C 298.890 198.259,295.280 203.014,281.698 214.402 C 279.434 216.299,271.611 221.961,267.592 224.610 C 265.302 226.119,263.340 227.450,263.231 227.568 C 263.122 227.686,261.070 229.061,258.672 230.624 C 256.274 232.187,254.133 233.607,253.915 233.779 C 250.527 236.461,229.536 249.106,218.038 255.392 C 215.224 256.930,212.516 258.439,209.377 260.219 C 207.993 261.003,206.783 261.645,206.688 261.645 C 206.592 261.645,205.137 262.423,203.455 263.374 C 201.773 264.324,198.702 265.991,196.630 267.078 C 193.080 268.941,190.973 270.071,185.332 273.138 C 184.024 273.849,181.794 275.061,180.377 275.831 C 177.527 277.379,176.460 277.975,171.947 280.535 C 170.254 281.496,168.024 282.752,166.991 283.327 C 161.508 286.379,162.171 285.619,160.264 291.027 C 158.623 295.676,157.717 298.103,156.951 299.901 C 156.765 300.337,156.246 301.675,155.798 302.874 C 155.350 304.073,154.820 305.411,154.621 305.847 C 154.312 306.525,152.639 310.888,150.365 316.947 C 150.038 317.820,149.610 318.843,149.414 319.222 C 149.219 319.600,149.058 320.108,149.058 320.351 C 149.058 320.594,148.808 321.354,148.502 322.041 C 147.808 323.601,146.175 328.141,145.273 331.021 C 143.599 336.367,140.191 339.904,135.183 341.492 C 133.984 341.872,132.608 342.437,132.125 342.747 C 129.731 344.283,127.255 343.243,127.255 340.703 C 127.255 339.714,127.015 338.848,126.660 338.553 C 125.938 337.953,125.882 337.305,126.561 337.393 C 128.094 337.592,128.037 337.719,129.908 330.030 C 130.438 327.849,131.046 325.373,131.258 324.527 C 131.469 323.681,131.904 322.616,132.224 322.160 C 132.543 321.703,132.805 320.934,132.805 320.450 C 132.805 319.965,133.203 319.290,133.691 318.949 C 134.450 318.417,134.507 318.216,134.087 317.544 C 133.526 316.645,133.433 315.164,133.938 315.164 C 134.125 315.164,134.389 314.102,134.524 312.804 C 134.698 311.143,135.252 309.529,136.397 307.353 C 138.482 303.389,139.683 297.809,138.137 299.264 C 137.930 299.459,134.549 301.397,130.624 303.569 C 120.729 309.047,119.726 309.613,118.046 310.668 C 117.232 311.178,116.500 311.596,116.418 311.596 C 116.336 311.596,114.771 312.456,112.941 313.508 C 103.407 318.989,97.404 319.683,89.824 316.182 C 86.812 314.791,85.964 313.759,86.558 312.210 C 86.685 311.879,86.381 311.329,85.845 310.921 C 82.518 308.383,85.859 305.658,92.315 305.643 C 96.441 305.634,102.767 302.943,111.397 297.525 C 113.905 295.951,119.613 292.355,124.083 289.535 C 128.553 286.715,133.618 283.523,135.339 282.442 C 138.994 280.145,141.130 278.408,141.130 277.734 C 141.130 277.029,142.939 275.474,146.108 273.454 C 149.212 271.475,150.176 269.983,151.816 264.618 C 152.282 263.092,154.075 258.998,155.799 255.521 C 158.918 249.234,159.172 248.167,157.556 248.167 C 156.160 248.167,155.875 246.704,156.608 243.300 C 157.483 239.230,157.740 238.422,159.403 234.490 C 163.909 223.841,167.600 212.867,166.203 214.272 C 165.467 215.012,158.386 224.730,155.798 228.552 C 147.074 241.437,143.293 245.293,137.364 247.355 C 136.056 247.810,134.450 248.369,133.796 248.596 C 124.679 251.764,112.639 245.663,109.732 236.401 C 108.822 233.503,109.543 225.610,111.409 218.038 C 111.597 217.275,112.038 215.491,112.389 214.073 C 112.739 212.656,113.175 210.872,113.356 210.109 C 113.883 207.889,114.866 204.142,115.538 201.784 C 115.881 200.585,116.443 198.355,116.788 196.829 C 117.133 195.302,117.559 193.429,117.735 192.666 C 118.046 191.313,120.254 182.950,120.927 180.575 C 121.112 179.921,121.432 178.761,121.639 177.998 C 122.851 173.516,124.778 170.561,126.954 169.852 C 128.101 169.478,129.265 168.992,129.541 168.773 C 129.836 168.540,130.903 168.484,132.118 168.638 C 133.259 168.783,135.568 169.067,137.249 169.268 C 143.484 170.016,144.552 172.624,142.124 181.169 C 141.589 183.052,139.988 189.524,138.985 193.855 C 137.957 198.300,135.574 208.158,134.530 212.289 C 133.354 216.942,132.626 219.884,131.995 222.527 C 131.744 223.580,131.660 225.087,131.808 225.877 L 132.078 227.314 133.730 225.550 C 134.638 224.580,136.046 222.805,136.859 221.606 C 137.671 220.406,138.885 218.801,139.558 218.038 C 142.289 214.936,145.700 210.577,147.004 208.523 C 147.765 207.324,150.011 204.381,151.995 201.982 C 153.979 199.584,156.405 196.553,157.385 195.248 C 159.340 192.645,164.137 187.512,164.615 187.512 C 165.651 187.512,164.379 189.884,160.609 194.975 C 156.107 201.056,155.132 202.577,155.735 202.577 C 155.934 202.577,156.984 201.373,158.068 199.901 C 159.152 198.429,162.341 194.545,165.154 191.269 C 167.966 187.993,170.981 184.252,171.853 182.955 C 173.268 180.852,176.966 176.137,177.607 175.619 C 178.548 174.859,182.540 168.137,182.233 167.829 C 181.998 167.595,177.572 172.704,176.157 174.842 C 175.585 175.706,174.799 176.412,174.410 176.412 C 174.021 176.412,173.420 176.521,173.075 176.653 C 172.624 176.826,172.448 176.656,172.448 176.046 C 172.448 175.580,172.714 175.096,173.039 174.971 C 173.364 174.847,174.283 173.670,175.081 172.356 C 176.271 170.396,179.852 165.705,180.761 164.916 C 182.415 163.478,186.847 157.318,188.318 154.411 C 189.007 153.048,189.600 152.388,190.212 152.300 C 191.124 152.169,191.784 151.044,193.396 146.878 C 194.249 144.673,196.578 139.885,199.856 133.598 C 204.030 125.594,206.541 118.178,206.541 113.859 C 206.541 112.222,207.604 112.404,211.398 114.691 C 214.039 116.284,217.133 117.344,219.138 117.344 C 220.723 117.344,222.950 118.222,224.397 119.416 C 229.621 123.732,228.342 133.004,220.388 148.464 C 209.877 168.894,209.205 170.397,210.803 169.913 C 211.464 169.712,212.808 169.376,216.551 168.474 C 220.099 167.619,223.448 165.707,226.587 162.744 C 227.445 161.934,229.574 160.217,231.318 158.928 C 233.062 157.639,234.668 156.449,234.886 156.284 C 235.899 155.516,239.346 153.419,239.594 153.419 C 240.050 153.419,252.590 145.161,260.852 139.419 C 270.816 132.495,282.254 124.910,287.862 121.506 C 295.192 117.058,297.065 115.661,301.277 111.492 C 303.817 108.980,307.319 106.000,309.206 104.747 C 317.725 99.089,322.825 94.647,325.807 90.287 L 327.095 88.404 323.012 88.415 C 318.168 88.428,311.774 89.066,301.685 90.544 C 299.395 90.879,296.274 91.333,294.747 91.553 C 293.221 91.772,290.991 92.130,289.792 92.347 C 288.593 92.564,285.917 93.025,283.845 93.371 C 277.468 94.435,275.831 94.714,272.547 95.298 C 270.803 95.608,267.592 96.156,265.411 96.515 C 263.231 96.875,260.823 97.330,260.059 97.526 C 259.296 97.722,256.353 98.430,253.518 99.100 C 250.684 99.770,247.740 100.488,246.977 100.695 C 245.636 101.059,244.733 101.286,237.463 103.083 C 226.817 105.716,202.759 112.147,198.811 113.417 C 198.157 113.627,195.481 114.403,192.864 115.141 C 187.348 116.698,183.139 117.993,181.169 118.740 C 180.406 119.030,178.444 119.740,176.809 120.317 C 173.700 121.415,171.479 122.261,169.475 123.108 C 168.821 123.385,167.126 124.082,165.709 124.657 C 162.041 126.146,160.985 126.654,142.914 135.619 C 119.949 147.012,119.043 147.557,103.124 159.531 C 97.593 163.692,92.330 167.625,91.429 168.272 C 85.938 172.216,85.539 172.593,83.339 175.929 C 80.722 179.895,80.247 180.138,75.124 180.124 C 68.699 180.107,66.710 178.979,64.927 174.338 C 62.268 167.415,66.475 159.937,78.295 150.572 C 84.447 145.697,111.257 128.877,125.051 121.237 C 144.350 110.547,154.953 105.757,163.895 103.687 C 168.247 102.680,167.883 103.488,162.727 106.282 C 157.565 109.080,157.381 109.533,162.000 108.074 C 163.713 107.533,166.987 106.528,169.277 105.841 C 171.566 105.154,173.885 104.440,174.430 104.253 C 175.493 103.889,184.834 101.001,188.107 100.025 C 189.197 99.700,190.446 99.279,190.882 99.091 C 191.653 98.759,195.388 97.580,199.009 96.527 C 199.990 96.241,202.309 95.530,204.163 94.945 C 207.716 93.825,208.197 93.683,216.056 91.420 C 218.781 90.635,221.903 89.730,222.993 89.409 C 230.848 87.092,246.501 83.192,256.690 81.014 C 258.216 80.688,260.178 80.258,261.051 80.058 C 263.081 79.594,274.134 77.507,277.502 76.951 C 284.292 75.832,299.602 74.150,303.507 74.094 L 306.244 74.054 304.500 73.507 C 303.004 73.037,302.280 73.043,299.394 73.546 C 295.728 74.186,291.208 74.331,291.537 73.799 C 292.340 72.501,307.502 71.022,314.749 71.535 C 317.135 71.705,318.731 71.670,318.731 71.450 C 318.731 70.085,323.028 69.845,328.076 70.929 M170.284 181.443 C 169.638 184.018,167.612 185.600,167.163 183.880 C 166.869 182.757,167.454 181.720,168.791 180.995 C 170.330 180.159,170.587 180.236,170.284 181.443 M252.527 189.332 C 252.200 189.410,249.257 189.759,245.986 190.109 C 242.716 190.458,238.791 190.898,237.265 191.087 C 226.617 192.404,223.687 192.731,219.822 193.037 C 215.032 193.416,210.591 193.082,207.532 192.113 C 203.471 190.827,201.440 191.452,200.184 194.376 C 199.152 196.779,197.839 199.693,196.041 203.568 C 195.333 205.094,194.363 207.235,193.886 208.325 C 193.409 209.415,192.852 210.664,192.649 211.100 C 190.873 214.900,188.463 220.751,187.669 223.191 C 187.137 224.827,186.332 226.967,185.879 227.948 C 184.319 231.333,183.978 232.118,183.212 234.093 C 182.789 235.183,181.968 237.146,181.388 238.454 C 180.807 239.762,180.175 241.189,179.984 241.625 C 179.793 242.061,178.629 245.005,177.397 248.167 C 176.164 251.328,174.930 254.450,174.654 255.104 C 172.603 259.967,172.205 259.930,180.608 255.651 C 192.466 249.613,196.054 247.132,199.461 242.616 C 200.037 241.853,201.553 240.694,202.831 240.040 C 204.108 239.386,205.823 238.447,206.641 237.953 C 209.843 236.021,215.836 233.165,216.207 233.394 C 216.422 233.527,215.807 234.318,214.840 235.152 C 212.950 236.782,212.936 236.947,214.750 236.174 C 216.333 235.501,218.093 233.963,219.492 232.031 C 221.269 229.578,225.743 225.971,229.931 223.616 C 233.308 221.716,237.733 218.961,238.256 218.432 C 238.365 218.322,239.464 217.480,240.698 216.563 C 241.932 215.645,243.449 214.424,244.068 213.849 C 245.174 212.821,251.234 208.523,251.576 208.523 C 253.582 208.523,268.812 194.993,270.678 191.553 L 271.585 189.882 270.553 189.490 C 269.614 189.133,253.938 188.995,252.527 189.332 M150.855 207.227 C 149.875 208.476,148.886 210.033,148.658 210.688 L 148.243 211.878 149.741 210.413 C 151.298 208.891,153.654 204.955,153.008 204.955 C 152.804 204.955,151.836 205.977,150.855 207.227 M145.532 214.682 C 144.145 216.261,143.858 217.373,145.135 216.217 C 145.927 215.500,147.284 213.280,146.929 213.280 C 146.837 213.280,146.208 213.911,145.532 214.682 M125.993 341.061 C 126.080 341.797,125.935 342.121,125.520 342.121 C 124.706 342.121,124.377 341.484,124.686 340.510 C 125.034 339.413,125.838 339.753,125.993 341.061 " stroke="none" fill="#fbfbfb" fill-rule="evenodd"></path><path id="path2" d="M320.020 70.827 C 319.361 71.093,319.385 71.754,320.053 71.754 C 320.344 71.754,320.581 71.487,320.581 71.160 C 320.581 70.833,320.567 70.579,320.548 70.596 C 320.530 70.613,320.292 70.717,320.020 70.827 M323.588 70.838 C 323.969 70.938,324.594 70.938,324.975 70.838 C 325.357 70.738,325.045 70.657,324.281 70.657 C 323.518 70.657,323.206 70.738,323.588 70.838 M327.453 71.358 C 328.808 71.792,329.851 71.792,328.840 71.358 C 328.404 71.170,327.691 71.022,327.255 71.029 C 326.617 71.038,326.656 71.103,327.453 71.358 M304.955 72.027 C 305.337 72.127,305.961 72.127,306.343 72.027 C 306.724 71.928,306.412 71.846,305.649 71.846 C 304.886 71.846,304.574 71.928,304.955 72.027 M319.524 72.155 L 316.947 72.358 319.722 72.590 C 322.844 72.852,322.752 72.861,322.377 72.337 C 322.220 72.119,320.987 72.040,319.524 72.155 M331.021 72.092 C 331.348 72.283,332.151 72.556,332.805 72.697 C 333.566 72.862,333.780 72.829,333.399 72.606 C 333.072 72.414,332.270 72.142,331.615 72.000 C 330.854 71.836,330.640 71.869,331.021 72.092 M299.614 72.441 C 300.546 72.525,301.974 72.524,302.786 72.439 C 303.597 72.354,302.834 72.285,301.090 72.287 C 299.346 72.288,298.682 72.358,299.614 72.441 M292.963 73.607 C 292.018 74.097,292.055 74.120,293.756 74.096 C 294.737 74.082,295.273 73.968,294.945 73.844 C 294.618 73.719,294.262 73.499,294.153 73.355 C 294.044 73.211,293.508 73.324,292.963 73.607 M300.404 74.817 C 301.116 74.905,302.186 74.903,302.782 74.812 C 303.378 74.722,302.795 74.650,301.487 74.652 C 300.178 74.654,299.691 74.728,300.404 74.817 M290.684 75.606 C 291.283 75.697,292.265 75.697,292.864 75.606 C 293.464 75.515,292.973 75.441,291.774 75.441 C 290.575 75.441,290.084 75.515,290.684 75.606 M281.566 76.785 C 281.947 76.884,282.572 76.884,282.953 76.785 C 283.335 76.685,283.023 76.603,282.260 76.603 C 281.497 76.603,281.184 76.685,281.566 76.785 M274.727 77.701 C 273.395 78.127,274.834 78.127,276.511 77.701 C 277.580 77.429,277.600 77.397,276.710 77.391 C 276.165 77.387,275.273 77.526,274.727 77.701 M268.186 78.900 C 267.657 79.135,267.986 79.173,269.177 79.016 C 270.159 78.886,271.036 78.715,271.127 78.637 C 271.471 78.338,268.943 78.565,268.186 78.900 M258.672 80.872 C 258.172 81.087,258.099 81.213,258.474 81.213 C 258.801 81.213,259.425 81.060,259.861 80.872 C 260.361 80.657,260.434 80.531,260.059 80.531 C 259.732 80.531,259.108 80.685,258.672 80.872 M316.452 88.292 C 317.052 88.383,318.033 88.383,318.632 88.292 C 319.232 88.201,318.741 88.127,317.542 88.127 C 316.343 88.127,315.852 88.201,316.452 88.292 M305.946 89.477 C 306.437 89.571,307.240 89.571,307.730 89.477 C 308.221 89.383,307.820 89.305,306.838 89.305 C 305.857 89.305,305.456 89.383,305.946 89.477 M217.641 91.179 C 216.825 91.441,216.790 91.503,217.443 91.530 C 217.879 91.549,218.503 91.391,218.831 91.179 C 219.525 90.730,219.043 90.730,217.641 91.179 M284.044 92.775 C 283.514 93.010,283.843 93.048,285.035 92.891 C 286.016 92.761,286.893 92.590,286.984 92.512 C 287.328 92.214,284.801 92.440,284.044 92.775 M321.694 95.639 L 318.930 98.513 321.804 95.749 C 323.385 94.229,324.678 92.935,324.678 92.875 C 324.678 92.584,324.262 92.970,321.694 95.639 M266.898 95.813 C 267.279 95.913,267.904 95.913,268.285 95.813 C 268.667 95.714,268.355 95.632,267.592 95.632 C 266.829 95.632,266.516 95.714,266.898 95.813 M261.249 96.729 C 260.452 96.985,260.413 97.049,261.051 97.058 C 261.487 97.065,262.200 96.917,262.636 96.729 C 263.646 96.295,262.604 96.295,261.249 96.729 M348.067 99.703 C 346.443 101.338,345.203 102.676,345.312 102.676 C 345.421 102.676,346.839 101.338,348.464 99.703 C 350.088 98.067,351.328 96.729,351.219 96.729 C 351.110 96.729,349.692 98.067,348.067 99.703 M315.758 100.545 C 315.045 101.152,314.900 101.393,315.394 101.147 C 316.121 100.786,317.484 99.481,317.095 99.519 C 317.014 99.527,316.412 99.988,315.758 100.545 M243.013 101.108 C 242.579 101.402,242.739 101.439,243.608 101.245 C 245.065 100.919,245.382 100.692,244.367 100.700 C 243.949 100.703,243.340 100.887,243.013 101.108 M238.256 102.298 C 237.821 102.591,237.982 102.628,238.850 102.434 C 240.308 102.108,240.624 101.881,239.610 101.889 C 239.192 101.892,238.583 102.076,238.256 102.298 M164.321 103.832 C 163.152 104.097,163.148 104.104,164.123 104.300 C 164.668 104.409,165.560 104.269,166.105 103.989 C 167.241 103.406,166.492 103.340,164.321 103.832 M225.966 105.469 C 225.532 105.763,225.692 105.800,226.561 105.605 C 228.019 105.279,228.335 105.052,227.321 105.061 C 226.903 105.064,226.293 105.248,225.966 105.469 M165.808 107.084 C 165.099 107.288,164.519 107.543,164.519 107.650 C 164.519 107.938,166.638 107.387,167.076 106.985 C 167.508 106.590,167.523 106.589,165.808 107.084 M218.434 107.451 C 218.000 107.745,218.160 107.782,219.029 107.588 C 220.486 107.262,220.803 107.035,219.789 107.043 C 219.371 107.046,218.761 107.230,218.434 107.451 M338.157 108.274 C 336.775 109.486,336.775 109.487,338.045 108.642 C 338.748 108.175,339.427 107.623,339.556 107.415 C 339.938 106.796,339.621 106.991,338.157 108.274 M214.073 108.641 C 213.639 108.934,213.799 108.971,214.668 108.777 C 216.126 108.451,216.442 108.224,215.428 108.232 C 215.010 108.235,214.400 108.419,214.073 108.641 M155.798 109.613 C 155.394 110.100,155.421 110.208,155.947 110.208 C 156.301 110.208,156.591 109.941,156.591 109.613 C 156.591 109.286,156.523 109.019,156.441 109.019 C 156.359 109.019,156.069 109.286,155.798 109.613 M203.766 111.397 C 202.950 111.659,202.915 111.721,203.568 111.748 C 204.004 111.767,204.628 111.609,204.955 111.397 C 205.650 110.949,205.168 110.949,203.766 111.397 M300.086 113.280 L 297.919 115.560 300.198 113.393 C 301.452 112.201,302.478 111.176,302.478 111.114 C 302.478 110.819,302.099 111.163,300.086 113.280 M206.700 113.536 C 206.584 113.840,206.549 114.777,206.624 115.617 C 206.749 117.033,206.773 116.993,206.947 115.064 C 207.140 112.940,207.077 112.554,206.700 113.536 M192.666 114.569 C 191.850 114.830,191.815 114.892,192.468 114.920 C 192.904 114.938,193.528 114.780,193.855 114.569 C 194.550 114.120,194.068 114.120,192.666 114.569 M319.722 121.145 L 318.533 122.167 319.822 121.314 C 320.530 120.845,321.110 120.384,321.110 120.290 C 321.110 119.993,320.942 120.097,319.722 121.145 M227.264 126.858 C 227.264 127.839,227.341 128.241,227.435 127.750 C 227.530 127.260,227.530 126.457,227.435 125.966 C 227.341 125.476,227.264 125.877,227.264 126.858 M307.922 129.053 C 307.108 129.606,306.442 130.144,306.442 130.248 C 306.442 130.352,307.156 129.965,308.028 129.388 C 309.413 128.472,309.881 128.048,309.507 128.048 C 309.449 128.048,308.735 128.500,307.922 129.053 M267.672 134.957 C 265.831 136.259,265.572 136.631,267.127 135.741 C 267.852 135.325,268.632 134.762,268.860 134.490 C 269.446 133.789,269.171 133.897,267.672 134.957 M93.657 140.383 C 92.306 141.248,91.869 141.829,93.062 141.173 C 93.972 140.673,95.397 139.571,95.144 139.563 C 95.035 139.560,94.366 139.929,93.657 140.383 M80.993 148.889 L 79.881 149.909 81.169 149.013 C 81.878 148.520,82.458 148.061,82.458 147.993 C 82.458 147.680,82.019 147.948,80.993 148.889 M113.273 151.253 C 112.460 151.806,111.794 152.344,111.794 152.448 C 111.794 152.552,112.507 152.165,113.380 151.588 C 114.764 150.672,115.232 150.248,114.859 150.248 C 114.801 150.248,114.087 150.700,113.273 151.253 M190.486 152.442 C 189.490 152.922,189.457 152.976,190.287 152.776 C 190.833 152.645,191.448 152.379,191.655 152.185 C 192.169 151.705,191.887 151.767,190.486 152.442 M73.319 155.302 L 71.952 156.789 73.439 155.423 C 74.823 154.151,75.108 153.816,74.805 153.816 C 74.739 153.816,74.070 154.485,73.319 155.302 M107.532 155.426 C 106.388 156.304,105.451 157.110,105.451 157.216 C 105.451 157.322,106.432 156.668,107.631 155.763 C 109.525 154.334,110.100 153.797,109.713 153.822 C 109.658 153.826,108.677 154.547,107.532 155.426 M227.725 162.240 L 226.561 163.528 227.849 162.364 C 228.558 161.723,229.138 161.144,229.138 161.075 C 229.138 160.769,228.811 161.039,227.725 162.240 M95.525 164.548 L 94.153 165.766 95.639 164.699 C 96.953 163.756,97.380 163.330,97.012 163.330 C 96.949 163.330,96.280 163.878,95.525 164.548 M224.381 164.975 C 223.617 165.645,223.352 166.011,223.790 165.789 C 224.514 165.423,226.310 163.704,225.929 163.743 C 225.840 163.751,225.144 164.306,224.381 164.975 M180.355 168.781 L 178.989 170.268 180.476 168.901 C 181.859 167.630,182.145 167.294,181.842 167.294 C 181.776 167.294,181.107 167.963,180.355 168.781 M247.547 168.583 L 246.383 169.871 247.671 168.707 C 248.380 168.066,248.959 167.487,248.959 167.418 C 248.959 167.112,248.632 167.382,247.547 168.583 M130.525 169.153 C 130.907 169.253,131.531 169.253,131.913 169.153 C 132.294 169.054,131.982 168.972,131.219 168.972 C 130.456 168.972,130.144 169.054,130.525 169.153 M87.733 170.297 L 86.620 171.317 87.909 170.420 C 88.617 169.927,89.197 169.468,89.197 169.400 C 89.197 169.087,88.759 169.356,87.733 170.297 M127.411 170.011 C 125.554 170.756,124.480 171.554,124.480 172.188 C 124.480 172.428,124.757 172.228,125.097 171.743 C 125.436 171.259,126.016 170.855,126.385 170.846 C 126.754 170.836,127.681 170.487,128.444 170.069 C 130.125 169.149,129.630 169.122,127.411 170.011 M136.174 169.696 C 138.183 170.111,139.805 170.092,138.157 169.673 C 137.502 169.507,136.432 169.370,135.778 169.369 C 134.778 169.368,134.841 169.420,136.174 169.696 M140.337 170.179 C 140.337 170.255,140.917 170.741,141.625 171.260 C 142.423 171.844,142.700 171.939,142.352 171.511 C 141.824 170.861,140.337 169.878,140.337 170.179 M248.059 171.941 C 248.762 172.029,250.011 172.030,250.834 171.944 C 251.656 171.859,251.080 171.787,249.554 171.785 C 248.028 171.783,247.355 171.854,248.059 171.941 M256.001 172.332 C 256.494 172.427,257.207 172.423,257.586 172.324 C 257.965 172.225,257.562 172.147,256.690 172.152 C 255.818 172.156,255.508 172.237,256.001 172.332 M262.146 172.732 C 262.749 172.824,263.641 172.821,264.128 172.727 C 264.616 172.633,264.123 172.558,263.033 172.561 C 261.943 172.564,261.544 172.641,262.146 172.732 M123.370 174.637 C 122.896 175.613,122.591 176.412,122.693 176.412 C 122.961 176.412,124.563 173.192,124.384 173.013 C 124.301 172.930,123.845 173.661,123.370 174.637 M265.709 173.118 C 266.090 173.217,266.715 173.217,267.096 173.118 C 267.478 173.018,267.166 172.936,266.402 172.936 C 265.639 172.936,265.327 173.018,265.709 173.118 M271.655 173.911 C 272.037 174.010,272.661 174.010,273.043 173.911 C 273.424 173.811,273.112 173.729,272.349 173.729 C 271.586 173.729,271.274 173.811,271.655 173.911 M173.216 175.055 C 172.684 175.695,173.226 176.409,174.232 176.394 C 174.450 176.391,174.306 176.201,173.913 175.972 C 173.347 175.643,173.295 175.437,173.664 174.993 C 173.921 174.683,174.042 174.430,173.933 174.430 C 173.824 174.430,173.501 174.711,173.216 175.055 M142.161 178.038 C 142.015 178.946,141.974 179.767,142.068 179.862 C 142.163 179.956,142.365 179.296,142.517 178.394 C 142.670 177.493,142.711 176.672,142.609 176.571 C 142.508 176.469,142.306 177.129,142.161 178.038 M69.772 179.192 C 70.099 179.401,70.887 179.574,71.523 179.578 C 73.056 179.586,72.723 179.357,70.763 179.056 C 69.683 178.891,69.367 178.934,69.772 179.192 M120.958 181.236 C 120.932 181.600,120.809 182.224,120.684 182.624 C 120.467 183.312,120.479 183.313,120.909 182.644 C 121.158 182.255,121.281 181.631,121.183 181.256 C 121.021 180.642,120.999 180.640,120.958 181.236 M169.040 181.231 C 168.873 181.501,168.931 181.581,169.181 181.426 C 169.415 181.282,169.677 181.380,169.765 181.643 C 169.865 181.944,170.019 181.872,170.182 181.447 C 170.479 180.674,169.499 180.488,169.040 181.231 M167.770 182.042 C 167.508 182.303,167.319 182.972,167.348 183.528 L 167.402 184.539 167.585 183.548 C 167.685 183.003,167.950 182.334,168.174 182.061 C 168.693 181.429,168.397 181.415,167.770 182.042 M294.351 183.152 C 295.202 184.024,295.988 184.737,296.097 184.737 C 296.206 184.737,295.599 184.024,294.747 183.152 C 293.896 182.279,293.110 181.566,293.001 181.566 C 292.892 181.566,293.499 182.279,294.351 183.152 M119.970 184.951 C 119.834 185.305,119.738 185.893,119.757 186.256 C 119.775 186.620,119.948 186.392,120.140 185.748 C 120.514 184.497,120.381 183.878,119.970 184.951 M140.188 186.140 C 140.052 186.494,139.956 187.082,139.975 187.446 C 139.993 187.809,140.166 187.581,140.358 186.938 C 140.732 185.686,140.599 185.067,140.188 186.140 M163.676 188.580 C 163.377 188.948,163.340 189.126,163.593 188.974 C 163.847 188.821,164.146 188.921,164.256 189.195 C 164.366 189.469,164.471 189.291,164.488 188.801 C 164.526 187.733,164.392 187.696,163.676 188.580 M255.699 188.528 C 256.026 188.599,259.504 188.720,263.429 188.795 C 267.354 188.870,269.851 188.801,268.979 188.642 C 267.473 188.365,254.451 188.254,255.699 188.528 M252.428 188.981 C 252.919 189.076,253.722 189.076,254.212 188.981 C 254.703 188.887,254.301 188.810,253.320 188.810 C 252.339 188.810,251.938 188.887,252.428 188.981 M244.103 189.774 C 244.594 189.869,245.396 189.869,245.887 189.774 C 246.378 189.680,245.976 189.603,244.995 189.603 C 244.014 189.603,243.612 189.680,244.103 189.774 M138.978 191.307 C 138.832 191.888,138.789 192.440,138.883 192.533 C 138.976 192.626,139.172 192.228,139.318 191.647 C 139.463 191.066,139.506 190.514,139.413 190.420 C 139.319 190.327,139.124 190.726,138.978 191.307 M234.589 190.964 C 235.079 191.058,235.882 191.058,236.373 190.964 C 236.863 190.869,236.462 190.792,235.481 190.792 C 234.500 190.792,234.098 190.869,234.589 190.964 M164.296 192.765 L 163.132 194.054 164.420 192.889 C 165.621 191.804,165.891 191.477,165.585 191.477 C 165.516 191.477,164.937 192.056,164.296 192.765 M228.048 191.750 C 228.429 191.850,229.054 191.850,229.435 191.750 C 229.817 191.650,229.504 191.569,228.741 191.569 C 227.978 191.569,227.666 191.650,228.048 191.750 M161.125 193.329 C 160.514 194.129,160.217 194.659,160.465 194.506 C 160.972 194.192,162.688 191.873,162.413 191.873 C 162.315 191.873,161.735 192.528,161.125 193.329 M225.273 192.146 C 225.654 192.246,226.278 192.246,226.660 192.146 C 227.042 192.047,226.729 191.965,225.966 191.965 C 225.203 191.965,224.891 192.047,225.273 192.146 M214.184 192.958 C 215.227 193.040,216.832 193.039,217.752 192.956 C 218.672 192.873,217.820 192.806,215.857 192.807 C 213.895 192.808,213.142 192.876,214.184 192.958 M117.786 193.526 C 117.761 193.889,117.638 194.514,117.512 194.913 C 117.296 195.601,117.308 195.602,117.737 194.933 C 117.986 194.545,118.110 193.920,118.011 193.546 C 117.850 192.932,117.828 192.930,117.786 193.526 M265.797 197.919 L 263.033 200.793 265.907 198.028 C 267.488 196.508,268.781 195.215,268.781 195.154 C 268.781 194.864,268.365 195.249,265.797 197.919 M116.798 197.637 C 116.662 197.991,116.566 198.579,116.585 198.942 C 116.604 199.306,116.776 199.077,116.968 198.434 C 117.342 197.183,117.210 196.564,116.798 197.637 M155.051 202.478 C 155.025 202.983,155.236 203.370,155.538 203.370 C 155.831 203.370,156.411 202.968,156.827 202.478 C 157.581 201.587,157.581 201.586,156.758 202.279 C 156.304 202.661,155.827 202.973,155.697 202.973 C 155.566 202.973,155.378 202.661,155.278 202.279 C 155.142 201.757,155.086 201.806,155.051 202.478 M291.957 204.658 L 289.990 206.739 292.071 204.772 C 294.005 202.944,294.334 202.577,294.039 202.577 C 293.976 202.577,293.039 203.513,291.957 204.658 M249.455 210.155 C 248.104 211.020,247.666 211.601,248.860 210.945 C 249.770 210.445,251.195 209.343,250.942 209.335 C 250.833 209.332,250.164 209.701,249.455 210.155 M149.628 211.001 L 148.464 212.289 149.752 211.125 C 150.953 210.040,151.223 209.713,150.917 209.713 C 150.848 209.713,150.269 210.292,149.628 211.001 M282.458 213.126 L 280.872 214.545 282.557 213.285 C 284.007 212.200,284.530 211.678,284.143 211.701 C 284.088 211.704,283.330 212.345,282.458 213.126 M146.084 213.335 C 145.305 214.019,144.474 214.955,144.238 215.416 C 144.001 215.877,144.468 215.496,145.275 214.569 C 146.746 212.879,147.763 212.348,147.321 213.499 C 147.192 213.838,147.240 214.019,147.429 213.902 C 147.915 213.602,148.263 212.091,147.846 212.091 C 147.656 212.091,146.863 212.651,146.084 213.335 M166.075 213.575 C 165.309 214.442,165.286 214.517,165.965 213.947 C 166.622 213.395,166.863 213.350,167.024 213.752 C 167.138 214.038,167.246 213.870,167.263 213.380 C 167.303 212.248,167.238 212.259,166.075 213.575 M145.886 215.758 C 145.302 216.555,145.206 216.832,145.635 216.485 C 146.285 215.957,147.268 214.470,146.967 214.470 C 146.891 214.470,146.405 215.050,145.886 215.758 M166.547 215.726 C 166.522 216.089,166.399 216.714,166.273 217.113 C 166.057 217.802,166.069 217.803,166.498 217.133 C 166.747 216.745,166.871 216.120,166.772 215.746 C 166.611 215.132,166.589 215.130,166.547 215.726 M140.510 217.344 L 139.346 218.632 140.634 217.468 C 141.835 216.383,142.105 216.056,141.799 216.056 C 141.730 216.056,141.151 216.635,140.510 217.344 M276.908 217.486 L 275.322 218.906 277.007 217.645 C 278.457 216.561,278.980 216.038,278.593 216.061 C 278.538 216.065,277.780 216.706,276.908 217.486 M142.398 218.513 C 141.839 219.073,141.777 219.623,142.273 219.623 C 142.465 219.623,142.716 219.267,142.830 218.831 C 143.072 217.905,143.034 217.877,142.398 218.513 M111.443 218.897 C 111.418 219.261,111.295 219.885,111.169 220.285 C 110.953 220.973,110.965 220.974,111.394 220.305 C 111.643 219.916,111.767 219.292,111.668 218.917 C 111.507 218.303,111.485 218.301,111.443 218.897 M110.322 225.768 C 110.324 226.858,110.401 227.257,110.493 226.655 C 110.584 226.052,110.581 225.160,110.487 224.672 C 110.393 224.185,110.319 224.678,110.322 225.768 M214.073 234.291 C 213.746 234.503,213.634 234.678,213.825 234.682 C 214.021 234.685,214.021 234.909,213.825 235.202 C 213.634 235.485,213.769 235.403,214.123 235.021 C 214.478 234.638,214.879 234.436,215.015 234.573 C 215.151 234.709,215.263 234.612,215.263 234.357 C 215.263 233.798,214.870 233.776,214.073 234.291 M211.298 237.394 C 211.298 237.574,211.833 237.643,212.488 237.547 C 213.142 237.451,213.677 237.304,213.677 237.220 C 213.677 237.135,213.142 237.066,212.488 237.066 C 211.833 237.066,211.298 237.214,211.298 237.394 M146.262 240.535 L 144.896 242.022 146.383 240.656 C 147.766 239.384,148.051 239.049,147.749 239.049 C 147.682 239.049,147.014 239.718,146.262 240.535 M142.716 243.879 C 141.734 244.773,141.288 245.317,141.724 245.086 C 142.470 244.692,145.047 242.201,144.673 242.236 C 144.577 242.245,143.697 242.984,142.716 243.879 M197.993 244.865 C 197.382 245.665,197.085 246.195,197.333 246.042 C 197.840 245.728,199.557 243.409,199.281 243.409 C 199.183 243.409,198.603 244.064,197.993 244.865 M126.363 248.853 C 127.289 248.937,128.806 248.937,129.732 248.853 C 130.659 248.770,129.901 248.701,128.048 248.701 C 126.194 248.701,125.436 248.770,126.363 248.853 M175.995 250.005 C 175.776 250.581,175.671 251.125,175.761 251.215 C 175.851 251.305,176.114 250.834,176.346 250.169 C 176.861 248.690,176.550 248.545,175.995 250.005 M173.439 259.479 C 172.785 259.779,172.528 260.032,172.868 260.042 C 173.208 260.051,173.832 259.798,174.255 259.477 C 175.195 258.767,174.994 258.767,173.439 259.479 M138.843 301.288 C 138.843 302.052,138.925 302.364,139.025 301.982 C 139.124 301.601,139.124 300.976,139.025 300.595 C 138.925 300.213,138.843 300.525,138.843 301.288 M137.583 305.610 C 137.246 306.239,137.299 306.333,137.899 306.176 C 138.295 306.072,138.619 305.733,138.619 305.422 C 138.619 304.619,138.059 304.721,137.583 305.610 M153.795 306.299 C 153.576 306.874,153.471 307.418,153.561 307.508 C 153.650 307.598,153.914 307.128,154.146 306.462 C 154.661 304.983,154.350 304.838,153.795 306.299 M90.287 306.332 C 90.996 306.420,92.156 306.420,92.864 306.332 C 93.573 306.244,92.993 306.172,91.576 306.172 C 90.159 306.172,89.579 306.244,90.287 306.332 M134.787 313.181 C 134.787 314.054,134.925 314.767,135.095 314.767 C 135.264 314.767,135.334 314.054,135.251 313.181 C 135.168 312.309,135.030 311.596,134.943 311.596 C 134.857 311.596,134.787 312.309,134.787 313.181 M133.986 315.783 C 133.508 316.371,133.504 316.442,133.962 316.166 C 134.384 315.911,134.462 315.991,134.272 316.486 C 134.133 316.850,134.211 317.146,134.446 317.146 C 134.707 317.146,134.777 317.569,134.626 318.236 C 134.436 319.078,134.471 319.176,134.782 318.666 C 135.469 317.540,134.731 314.866,133.986 315.783 M93.954 317.547 C 94.281 317.756,95.069 317.929,95.705 317.932 C 97.239 317.941,96.905 317.712,94.945 317.411 C 93.866 317.246,93.549 317.289,93.954 317.547 M101.189 317.815 C 101.571 317.915,102.195 317.915,102.577 317.815 C 102.958 317.716,102.646 317.634,101.883 317.634 C 101.120 317.634,100.808 317.716,101.189 317.815 M97.820 318.218 C 98.310 318.313,99.113 318.313,99.604 318.218 C 100.094 318.124,99.693 318.047,98.712 318.047 C 97.730 318.047,97.329 318.124,97.820 318.218 M147.452 322.949 C 147.233 323.524,147.128 324.069,147.218 324.158 C 147.308 324.248,147.571 323.778,147.803 323.112 C 148.318 321.634,148.007 321.489,147.452 322.949 M144.698 330.726 C 144.698 330.782,144.522 331.439,144.308 332.186 C 144.094 332.933,144.071 333.378,144.257 333.174 C 144.662 332.732,145.197 330.624,144.903 330.624 C 144.790 330.624,144.698 330.670,144.698 330.726 M140.733 337.562 C 139.770 338.543,139.072 339.346,139.181 339.346 C 139.290 339.346,140.167 338.543,141.130 337.562 C 142.093 336.581,142.791 335.778,142.682 335.778 C 142.573 335.778,141.696 336.581,140.733 337.562 M127.391 337.859 C 127.194 338.132,127.154 339.158,127.301 340.139 L 127.568 341.923 127.535 340.123 C 127.517 339.133,127.635 338.107,127.798 337.843 C 128.189 337.210,127.849 337.224,127.391 337.859 M127.997 342.616 C 128.297 342.999,129.009 343.286,129.583 343.256 L 130.624 343.202 129.633 343.020 C 129.088 342.920,128.375 342.632,128.048 342.380 C 127.530 341.982,127.524 342.013,127.997 342.616 " stroke="none" fill="#7c7c7c" fill-rule="evenodd"></path><path id="path3" d="M319.722 70.642 C 319.286 70.889,318.840 71.220,318.731 71.377 C 318.622 71.534,318.176 71.752,317.740 71.861 C 317.123 72.015,317.185 72.069,318.018 72.105 C 318.607 72.130,319.231 71.912,319.405 71.620 C 319.580 71.328,320.079 70.888,320.515 70.641 C 320.951 70.394,321.130 70.193,320.912 70.193 C 320.694 70.193,320.159 70.395,319.722 70.642 M322.332 70.312 C 322.423 70.390,323.568 70.554,324.876 70.676 C 326.354 70.813,326.879 70.774,326.264 70.572 C 325.285 70.251,322.013 70.034,322.332 70.312 M307.334 71.642 C 307.934 71.733,308.915 71.733,309.514 71.642 C 310.114 71.551,309.623 71.477,308.424 71.477 C 307.225 71.477,306.734 71.551,307.334 71.642 M313.087 71.638 C 313.580 71.733,314.294 71.729,314.673 71.630 C 315.052 71.531,314.648 71.453,313.776 71.458 C 312.904 71.462,312.594 71.543,313.087 71.638 M302.383 72.035 C 302.876 72.129,303.590 72.126,303.969 72.027 C 304.348 71.927,303.944 71.850,303.072 71.854 C 302.200 71.859,301.890 71.940,302.383 72.035 M295.144 72.566 C 294.591 72.816,294.831 72.852,295.937 72.683 C 296.809 72.551,297.597 72.376,297.687 72.296 C 298.028 71.996,295.905 72.221,295.144 72.566 M303.304 73.086 C 303.394 73.164,304.004 73.348,304.658 73.494 C 305.527 73.689,305.687 73.652,305.253 73.358 C 304.717 72.996,302.906 72.743,303.304 73.086 M300.404 74.420 C 301.116 74.508,302.186 74.507,302.782 74.416 C 303.378 74.326,302.795 74.253,301.487 74.256 C 300.178 74.258,299.691 74.332,300.404 74.420 M296.040 74.810 C 296.533 74.904,297.247 74.901,297.626 74.802 C 298.005 74.702,297.602 74.625,296.729 74.629 C 295.857 74.634,295.547 74.715,296.040 74.810 M238.454 85.233 C 237.954 85.448,237.881 85.574,238.256 85.574 C 238.583 85.574,239.207 85.420,239.643 85.233 C 240.143 85.018,240.216 84.892,239.841 84.892 C 239.514 84.892,238.890 85.046,238.454 85.233 M302.577 90.263 C 302.958 90.363,303.583 90.363,303.964 90.263 C 304.346 90.164,304.034 90.082,303.271 90.082 C 302.507 90.082,302.195 90.164,302.577 90.263 M288.206 92.369 C 287.421 92.620,287.380 92.686,288.008 92.686 C 288.444 92.686,289.247 92.543,289.792 92.369 C 290.577 92.117,290.618 92.051,289.990 92.051 C 289.554 92.051,288.751 92.194,288.206 92.369 M321.249 95.548 C 319.908 96.852,318.932 97.919,319.081 97.919 C 319.229 97.919,320.410 96.848,321.705 95.540 C 324.751 92.462,324.416 92.467,321.249 95.548 M348.067 100.099 C 346.443 101.734,345.203 103.072,345.312 103.072 C 345.421 103.072,346.839 101.734,348.464 100.099 C 350.088 98.464,351.328 97.126,351.219 97.126 C 351.110 97.126,349.692 98.464,348.067 100.099 M241.229 101.883 C 240.729 102.098,240.656 102.224,241.031 102.224 C 241.358 102.224,241.982 102.070,242.418 101.883 C 242.918 101.668,242.991 101.542,242.616 101.542 C 242.289 101.542,241.665 101.696,241.229 101.883 M166.233 103.351 C 166.931 103.532,166.931 103.557,166.233 104.120 C 165.566 104.657,165.580 104.668,166.413 104.264 C 167.401 103.785,167.251 103.045,166.181 103.118 C 165.605 103.158,165.613 103.191,166.233 103.351 M342.884 104.955 L 341.923 106.046 343.112 105.055 C 343.766 104.509,344.376 104.019,344.466 103.964 C 344.557 103.910,344.455 103.865,344.238 103.865 C 344.022 103.865,343.412 104.356,342.884 104.955 M228.543 105.055 C 228.043 105.269,227.970 105.395,228.345 105.395 C 228.672 105.395,229.296 105.242,229.732 105.055 C 230.232 104.840,230.305 104.714,229.931 104.714 C 229.604 104.714,228.979 104.867,228.543 105.055 M306.167 106.867 L 305.055 107.887 306.343 106.991 C 307.052 106.498,307.631 106.039,307.631 105.971 C 307.631 105.658,307.193 105.926,306.167 106.867 M157.862 108.679 C 156.399 109.615,156.378 110.027,157.822 109.449 C 158.344 109.240,158.603 109.058,158.398 109.044 C 158.193 109.030,158.371 108.757,158.794 108.437 C 159.939 107.571,159.356 107.722,157.862 108.679 M299.916 112.971 L 297.553 115.560 300.096 113.097 C 301.494 111.742,302.558 110.577,302.459 110.508 C 302.360 110.439,301.216 111.547,299.916 112.971 M205.969 117.168 C 205.819 117.963,205.776 118.694,205.873 118.790 C 205.970 118.887,206.172 118.316,206.321 117.520 C 206.470 116.725,206.513 115.994,206.416 115.897 C 206.319 115.800,206.118 116.372,205.969 117.168 M291.080 119.372 C 289.729 120.237,289.292 120.818,290.486 120.162 C 291.395 119.662,292.820 118.560,292.567 118.552 C 292.458 118.549,291.789 118.918,291.080 119.372 M202.641 127.866 C 201.977 129.324,202.104 129.635,202.822 128.310 C 203.157 127.691,203.358 127.110,203.267 127.020 C 203.176 126.929,202.895 127.310,202.641 127.866 M259.366 140.376 C 258.439 141.033,257.681 141.658,257.681 141.765 C 257.681 141.873,258.484 141.408,259.465 140.733 C 260.446 140.058,261.249 139.425,261.249 139.327 C 261.249 139.054,261.174 139.096,259.366 140.376 M288.206 142.751 C 287.548 143.289,287.481 143.424,288.008 143.152 C 289.301 142.484,290.018 141.935,289.594 141.938 C 289.376 141.939,288.751 142.305,288.206 142.751 M84.334 146.100 C 83.520 146.652,82.854 147.190,82.854 147.294 C 82.854 147.399,83.568 147.012,84.440 146.435 C 85.825 145.518,86.293 145.094,85.920 145.094 C 85.861 145.094,85.148 145.547,84.334 146.100 M71.754 156.392 C 70.130 158.028,68.890 159.366,68.999 159.366 C 69.108 159.366,70.526 158.028,72.151 156.392 C 73.775 154.757,75.015 153.419,74.906 153.419 C 74.797 153.419,73.379 154.757,71.754 156.392 M184.591 160.258 C 183.722 161.437,183.464 161.963,183.996 161.471 C 184.833 160.697,186.556 158.176,186.246 158.177 C 186.180 158.177,185.435 159.114,184.591 160.258 M228.718 160.982 L 226.561 162.994 228.840 161.104 C 230.932 159.370,231.337 158.969,230.997 158.969 C 230.930 158.969,229.904 159.875,228.718 160.982 M100.496 161.193 L 98.910 162.612 100.595 161.352 C 102.045 160.268,102.568 159.745,102.180 159.768 C 102.126 159.771,101.368 160.413,100.496 161.193 M181.145 168.385 C 180.167 169.420,179.014 170.720,178.583 171.274 C 178.152 171.828,178.717 171.292,179.838 170.085 C 180.959 168.877,182.102 167.889,182.377 167.889 C 182.652 167.889,182.924 167.577,182.980 167.195 C 183.115 166.274,183.176 166.234,181.145 168.385 M247.749 168.781 L 246.383 170.268 247.869 168.901 C 249.253 167.630,249.538 167.294,249.235 167.294 C 249.169 167.294,248.500 167.963,247.749 168.781 M129.486 168.797 C 129.380 168.970,129.949 169.046,130.751 168.967 C 132.945 168.750,133.206 168.550,131.342 168.515 C 130.428 168.498,129.593 168.625,129.486 168.797 M126.556 169.937 C 125.035 170.476,123.714 171.815,124.213 172.314 C 124.320 172.420,124.521 172.149,124.660 171.711 C 124.823 171.199,125.617 170.680,126.877 170.261 C 127.957 169.903,128.840 169.534,128.840 169.443 C 128.840 169.189,128.399 169.285,126.556 169.937 M63.832 171.093 C 63.835 171.511,64.019 172.121,64.240 172.448 C 64.534 172.882,64.571 172.722,64.376 171.853 C 64.050 170.396,63.824 170.079,63.832 171.093 M247.676 171.539 C 248.169 171.634,248.882 171.630,249.261 171.531 C 249.640 171.432,249.237 171.354,248.365 171.359 C 247.493 171.363,247.182 171.444,247.676 171.539 M255.407 171.940 C 256.009 172.031,256.901 172.028,257.389 171.934 C 257.877 171.840,257.384 171.766,256.293 171.768 C 255.203 171.771,254.804 171.848,255.407 171.940 M142.971 173.241 C 143.285 174.951,143.510 175.273,143.502 174.001 C 143.499 173.474,143.321 172.775,143.106 172.448 C 142.832 172.030,142.792 172.265,142.971 173.241 M259.366 172.335 C 259.965 172.426,260.946 172.426,261.546 172.335 C 262.146 172.245,261.655 172.170,260.456 172.170 C 259.257 172.170,258.766 172.245,259.366 172.335 M265.709 172.721 C 266.090 172.821,266.715 172.821,267.096 172.721 C 267.478 172.622,267.166 172.540,266.402 172.540 C 265.639 172.540,265.327 172.622,265.709 172.721 M268.484 173.118 C 268.865 173.217,269.490 173.217,269.871 173.118 C 270.253 173.018,269.941 172.936,269.177 172.936 C 268.414 172.936,268.102 173.018,268.484 173.118 M122.773 175.030 C 122.411 175.790,122.196 176.412,122.296 176.412 C 122.567 176.412,123.770 173.985,123.589 173.804 C 123.503 173.718,123.136 174.269,122.773 175.030 M274.529 174.034 C 274.965 174.221,275.679 174.369,276.115 174.363 C 276.752 174.353,276.713 174.289,275.917 174.034 C 274.561 173.600,273.519 173.600,274.529 174.034 M172.712 175.091 C 172.312 175.491,172.396 176.809,172.821 176.809 C 173.026 176.809,173.304 176.630,173.439 176.412 C 173.574 176.194,173.476 176.016,173.222 176.016 C 172.968 176.016,172.862 175.748,172.988 175.421 C 173.233 174.783,173.136 174.667,172.712 175.091 M175.002 178.692 C 172.898 181.322,172.722 181.566,172.936 181.566 C 173.039 181.566,173.965 180.496,174.993 179.187 C 176.020 177.879,176.782 176.809,176.685 176.809 C 176.587 176.809,175.830 177.656,175.002 178.692 M81.450 178.422 C 81.305 178.656,80.804 179.001,80.336 179.190 C 79.755 179.424,79.686 179.541,80.117 179.559 C 80.465 179.572,81.072 179.227,81.467 178.791 C 81.861 178.355,82.078 177.998,81.948 177.998 C 81.818 177.998,81.594 178.189,81.450 178.422 M75.719 179.980 L 73.142 180.240 75.520 180.302 C 76.829 180.336,78.167 180.192,78.494 179.980 C 78.821 179.769,78.910 179.624,78.692 179.658 C 78.474 179.693,77.136 179.837,75.719 179.980 M294.935 183.350 C 296.114 184.658,297.158 185.818,297.255 185.927 C 297.352 186.036,297.243 185.768,297.012 185.332 C 296.781 184.896,295.737 183.736,294.691 182.755 L 292.790 180.971 294.935 183.350 M119.949 183.775 C 119.803 184.356,119.760 184.907,119.854 185.001 C 119.947 185.094,120.143 184.695,120.289 184.114 C 120.435 183.533,120.477 182.982,120.384 182.888 C 120.291 182.795,120.095 183.194,119.949 183.775 M169.053 186.819 L 167.889 188.107 169.177 186.943 C 170.378 185.857,170.648 185.530,170.342 185.530 C 170.274 185.530,169.694 186.110,169.053 186.819 M298.383 189.296 C 298.683 191.256,298.912 191.590,298.904 190.056 C 298.900 189.420,298.727 188.632,298.519 188.305 C 298.260 187.900,298.217 188.216,298.383 189.296 M166.307 189.887 C 165.683 190.539,165.248 191.135,165.341 191.213 C 165.434 191.290,166.019 190.757,166.640 190.028 C 168.042 188.381,167.834 188.293,166.307 189.887 M258.375 188.997 C 260.173 189.070,263.117 189.070,264.916 188.997 C 266.715 188.923,265.243 188.863,261.645 188.863 C 258.048 188.863,256.576 188.923,258.375 188.997 M250.847 189.378 C 251.340 189.473,252.054 189.470,252.433 189.370 C 252.812 189.271,252.408 189.194,251.536 189.198 C 250.664 189.202,250.354 189.284,250.847 189.378 M270.689 189.516 C 271.264 189.747,271.502 190.071,271.325 190.383 C 271.110 190.763,271.174 190.760,271.594 190.370 C 272.213 189.794,271.519 189.092,270.367 189.129 C 270.040 189.140,270.185 189.314,270.689 189.516 M160.728 191.179 L 159.564 192.468 160.852 191.303 C 162.053 190.218,162.323 189.891,162.017 189.891 C 161.948 189.891,161.369 190.471,160.728 191.179 M238.256 190.684 C 237.203 190.905,237.107 190.983,237.859 191.005 C 238.404 191.021,239.564 190.887,240.436 190.707 C 241.758 190.433,241.824 190.380,240.833 190.385 C 240.178 190.389,239.019 190.523,238.256 190.684 M231.025 191.757 C 231.519 191.852,232.232 191.848,232.611 191.749 C 232.990 191.650,232.587 191.572,231.715 191.577 C 230.842 191.581,230.532 191.662,231.025 191.757 M223.687 192.543 C 224.068 192.643,224.693 192.643,225.074 192.543 C 225.456 192.443,225.144 192.362,224.381 192.362 C 223.617 192.362,223.305 192.443,223.687 192.543 M220.912 192.939 C 221.293 193.039,221.918 193.039,222.299 192.939 C 222.681 192.840,222.369 192.758,221.606 192.758 C 220.842 192.758,220.530 192.840,220.912 192.939 M214.965 193.336 C 215.347 193.435,215.971 193.435,216.353 193.336 C 216.734 193.236,216.422 193.154,215.659 193.154 C 214.896 193.154,214.584 193.236,214.965 193.336 M116.799 196.283 C 116.468 197.936,116.789 198.256,117.146 196.630 C 117.296 195.945,117.337 195.302,117.236 195.201 C 117.135 195.100,116.938 195.587,116.799 196.283 M265.598 197.721 L 263.033 200.396 265.709 197.831 C 267.180 196.420,268.385 195.216,268.385 195.155 C 268.385 194.863,267.981 195.235,265.598 197.721 M137.788 197.650 C 137.643 198.231,137.600 198.782,137.693 198.876 C 137.787 198.969,137.982 198.570,138.128 197.990 C 138.274 197.409,138.317 196.857,138.223 196.763 C 138.130 196.670,137.934 197.069,137.788 197.650 M155.951 200.805 C 155.590 201.357,155.366 201.881,155.454 201.969 C 155.542 202.057,155.915 201.606,156.282 200.965 C 157.100 199.540,156.858 199.422,155.951 200.805 M136.599 202.407 C 136.453 202.988,136.411 203.540,136.504 203.633 C 136.597 203.727,136.793 203.328,136.939 202.747 C 137.085 202.166,137.128 201.614,137.034 201.520 C 136.941 201.427,136.745 201.826,136.599 202.407 M152.316 205.253 C 151.703 205.852,151.578 206.031,152.038 205.649 C 152.499 205.268,153.087 204.955,153.346 204.955 C 153.604 204.955,153.816 204.777,153.816 204.559 C 153.816 203.940,153.518 204.078,152.316 205.253 M286.996 209.613 L 285.629 211.100 287.116 209.734 C 288.500 208.462,288.785 208.127,288.482 208.127 C 288.416 208.127,287.747 208.796,286.996 209.613 M150.049 210.110 C 149.216 210.979,148.823 211.166,148.593 210.804 C 148.362 210.440,148.276 210.434,148.272 210.779 C 148.259 211.786,148.988 211.607,150.263 210.292 C 150.994 209.537,151.502 208.920,151.391 208.920 C 151.280 208.920,150.676 209.455,150.049 210.110 M134.617 210.732 C 134.471 211.313,134.428 211.865,134.522 211.958 C 134.615 212.052,134.811 211.653,134.957 211.072 C 135.103 210.491,135.145 209.939,135.052 209.846 C 134.959 209.752,134.763 210.151,134.617 210.732 M145.650 214.185 L 144.500 215.458 145.653 214.468 C 146.530 213.716,146.747 213.645,146.558 214.172 C 146.223 215.104,146.551 215.055,147.063 214.097 C 147.764 212.789,146.862 212.845,145.650 214.185 M164.083 216.551 C 162.084 219.149,162.031 219.227,162.243 219.227 C 162.352 219.227,163.183 218.246,164.088 217.047 C 164.994 215.847,165.654 214.866,165.557 214.866 C 165.459 214.866,164.796 215.624,164.083 216.551 M239.683 217.272 C 238.833 217.911,238.305 218.434,238.509 218.434 C 238.713 218.434,239.498 217.906,240.253 217.261 C 242.009 215.760,241.686 215.766,239.683 217.272 M157.171 226.065 C 156.559 226.992,156.313 227.541,156.622 227.285 C 157.218 226.793,158.736 224.381,158.450 224.381 C 158.357 224.381,157.782 225.139,157.171 226.065 M133.374 226.065 L 132.210 227.354 133.499 226.189 C 134.699 225.104,134.969 224.777,134.663 224.777 C 134.595 224.777,134.015 225.357,133.374 226.065 M215.795 233.370 C 215.942 233.517,215.660 234.097,215.167 234.658 L 214.272 235.679 215.350 234.729 C 216.292 233.899,216.497 233.102,215.768 233.102 C 215.635 233.102,215.647 233.223,215.795 233.370 M182.027 236.092 C 181.363 237.550,181.489 237.861,182.207 236.536 C 182.543 235.917,182.743 235.336,182.652 235.246 C 182.562 235.155,182.280 235.536,182.027 236.092 M212.752 236.227 L 211.628 236.967 212.669 236.967 C 213.242 236.967,213.615 236.872,213.499 236.756 C 213.382 236.640,213.486 236.305,213.729 236.013 C 214.325 235.294,214.087 235.347,212.752 236.227 M144.885 242.319 L 142.121 245.193 144.995 242.429 C 147.665 239.861,148.050 239.445,147.759 239.445 C 147.699 239.445,146.406 240.738,144.885 242.319 M113.759 243.112 C 115.402 244.862,115.758 245.177,115.758 244.879 C 115.758 244.816,114.911 243.968,113.875 242.996 L 111.992 241.229 113.759 243.112 M156.108 245.400 C 155.927 246.634,156.688 248.167,157.482 248.167 C 157.729 248.167,157.592 247.918,157.177 247.615 C 156.636 247.219,156.450 246.659,156.519 245.633 C 156.636 243.897,156.353 243.736,156.108 245.400 M195.639 246.841 C 193.942 248.396,193.891 248.481,195.281 247.436 C 196.749 246.332,198.144 244.972,197.769 245.010 C 197.688 245.019,196.729 245.843,195.639 246.841 M126.770 249.250 C 127.702 249.334,129.129 249.333,129.941 249.248 C 130.753 249.162,129.990 249.094,128.246 249.095 C 126.501 249.097,125.837 249.166,126.770 249.250 M148.067 272.200 C 147.355 272.807,147.209 273.048,147.704 272.802 C 148.430 272.441,149.793 271.136,149.404 271.174 C 149.323 271.182,148.722 271.643,148.067 272.200 M142.125 276.309 C 141.500 276.961,141.066 277.558,141.159 277.635 C 141.252 277.712,141.836 277.179,142.457 276.450 C 143.860 274.803,143.652 274.715,142.125 276.309 M134.688 300.919 C 133.870 301.351,133.201 301.792,133.201 301.901 C 133.201 302.009,133.915 301.733,134.787 301.288 C 135.659 300.843,136.373 300.394,136.373 300.289 C 136.373 300.030,136.370 300.031,134.688 300.919 M138.409 302.346 C 138.379 302.819,138.252 303.532,138.127 303.932 C 137.911 304.619,137.923 304.620,138.351 303.953 C 138.600 303.565,138.727 302.852,138.633 302.367 C 138.463 301.487,138.463 301.487,138.409 302.346 M90.295 305.936 C 91.007 306.025,92.077 306.023,92.673 305.932 C 93.269 305.842,92.686 305.770,91.378 305.772 C 90.069 305.774,89.582 305.848,90.295 305.936 M84.848 307.420 C 84.582 307.739,84.457 308.230,84.569 308.510 C 84.701 308.838,84.785 308.779,84.805 308.345 C 84.822 307.974,85.149 307.489,85.530 307.267 C 85.912 307.044,86.023 306.857,85.777 306.851 C 85.531 306.844,85.113 307.100,84.848 307.420 M134.616 314.328 C 134.749 316.592,135.382 317.922,135.382 315.937 C 135.382 315.293,135.259 314.767,135.108 314.767 C 134.958 314.767,134.757 314.187,134.663 313.479 C 134.569 312.770,134.548 313.152,134.616 314.328 M148.332 321.486 C 148.100 322.151,147.995 322.696,148.098 322.696 C 148.365 322.696,149.114 320.636,148.917 320.440 C 148.827 320.350,148.564 320.821,148.332 321.486 M140.913 337.859 L 139.346 339.544 141.031 337.977 C 142.598 336.520,142.898 336.174,142.598 336.174 C 142.533 336.174,141.775 336.933,140.913 337.859 M126.065 337.736 C 126.065 337.914,126.378 338.298,126.759 338.591 C 127.141 338.883,127.321 338.965,127.159 338.775 C 126.997 338.584,127.033 338.226,127.238 337.979 C 127.493 337.672,127.366 337.511,126.838 337.471 C 126.413 337.439,126.065 337.558,126.065 337.736 M125.230 340.068 C 125.550 340.292,125.691 340.805,125.565 341.287 C 125.445 341.746,125.520 342.121,125.732 342.121 C 126.351 342.121,125.927 340.018,125.273 339.842 C 124.778 339.709,124.771 339.747,125.230 340.068 " stroke="none" fill="#a0a0a0" fill-rule="evenodd"></path><path id="path4" d="M354.510 88.999 C 354.515 89.871,354.596 90.181,354.691 89.688 C 354.786 89.195,354.782 88.481,354.683 88.102 C 354.583 87.723,354.506 88.127,354.510 88.999 M320.422 88.292 C 321.024 88.384,321.916 88.381,322.404 88.287 C 322.891 88.193,322.398 88.118,321.308 88.121 C 320.218 88.124,319.819 88.201,320.422 88.292 M252.626 171.928 C 253.008 172.028,253.632 172.028,254.014 171.928 C 254.395 171.829,254.083 171.747,253.320 171.747 C 252.557 171.747,252.245 171.829,252.626 171.928 " stroke="none" fill="#848484" fill-rule="evenodd"></path></g></svg>